<svg width="74" height="74" viewBox="0 0 74 74" fill="none" xmlns="http://www.w3.org/2000/svg">
<rect x="5" y="1" width="64" height="64" rx="14.4" fill="#A2A2A2"/>
<g filter="url(#filter0_dd_1_120)">
<rect x="5" y="1" width="64" height="64" rx="14.4" fill="#1C1B1B" fill-opacity="0.01" shape-rendering="crispEdges"/>
</g>
<rect x="13" y="9" width="48" height="48" rx="10.8" fill="url(#paint0_linear_1_120)"/>
<path d="M40.3 37.7L41.7 36.3L38 32.6V28H36V33.4L40.3 37.7ZM37 43C35.6167 43 34.3167 42.7375 33.1 42.2125C31.8833 41.6875 30.825 40.975 29.925 40.075C29.025 39.175 28.3125 38.1167 27.7875 36.9C27.2625 35.6833 27 34.3833 27 33C27 31.6167 27.2625 30.3167 27.7875 29.1C28.3125 27.8833 29.025 26.825 29.925 25.925C30.825 25.025 31.8833 24.3125 33.1 23.7875C34.3167 23.2625 35.6167 23 37 23C38.3833 23 39.6833 23.2625 40.9 23.7875C42.1167 24.3125 43.175 25.025 44.075 25.925C44.975 26.825 45.6875 27.8833 46.2125 29.1C46.7375 30.3167 47 31.6167 47 33C47 34.3833 46.7375 35.6833 46.2125 36.9C45.6875 38.1167 44.975 39.175 44.075 40.075C43.175 40.975 42.1167 41.6875 40.9 42.2125C39.6833 42.7375 38.3833 43 37 43ZM37 41C39.2167 41 41.1042 40.2208 42.6625 38.6625C44.2208 37.1042 45 35.2167 45 33C45 30.7833 44.2208 28.8958 42.6625 27.3375C41.1042 25.7792 39.2167 25 37 25C34.7833 25 32.8958 25.7792 31.3375 27.3375C29.7792 28.8958 29 30.7833 29 33C29 35.2167 29.7792 37.1042 31.3375 38.6625C32.8958 40.2208 34.7833 41 37 41Z" fill="#A2A2A2"/>
<defs>
<filter id="filter0_dd_1_120" x="0" y="0" width="74" height="74" filterUnits="userSpaceOnUse" color-interpolation-filters="sRGB">
<feFlood flood-opacity="0" result="BackgroundImageFix"/>
<feColorMatrix in="SourceAlpha" type="matrix" values="0 0 0 0 0 0 0 0 0 0 0 0 0 0 0 0 0 0 127 0" result="hardAlpha"/>
<feMorphology radius="2" operator="erode" in="SourceAlpha" result="effect1_dropShadow_1_120"/>
<feOffset dy="2"/>
<feGaussianBlur stdDeviation="2"/>
<feComposite in2="hardAlpha" operator="out"/>
<feColorMatrix type="matrix" values="0 0 0 0 0 0 0 0 0 0 0 0 0 0 0 0 0 0 0.1 0"/>
<feBlend mode="normal" in2="BackgroundImageFix" result="effect1_dropShadow_1_120"/>
<feColorMatrix in="SourceAlpha" type="matrix" values="0 0 0 0 0 0 0 0 0 0 0 0 0 0 0 0 0 0 127 0" result="hardAlpha"/>
<feMorphology radius="1" operator="erode" in="SourceAlpha" result="effect2_dropShadow_1_120"/>
<feOffset dy="4"/>
<feGaussianBlur stdDeviation="3"/>
<feComposite in2="hardAlpha" operator="out"/>
<feColorMatrix type="matrix" values="0 0 0 0 0 0 0 0 0 0 0 0 0 0 0 0 0 0 0.1 0"/>
<feBlend mode="normal" in2="effect1_dropShadow_1_120" result="effect2_dropShadow_1_120"/>
<feBlend mode="normal" in="SourceGraphic" in2="effect2_dropShadow_1_120" result="shape"/>
</filter>
<linearGradient id="paint0_linear_1_120" x1="13" y1="9" x2="61" y2="57" gradientUnits="userSpaceOnUse">
<stop stop-color="#0A2E52"/>
<stop offset="1" stop-color="#137FEC"/>
</linearGradient>
</defs>
</svg>
